<svg version="1.1" id="Layer_1" xmlns="http://www.w3.org/2000/svg" xmlns:xlink="http://www.w3.org/1999/xlink" x="0px" y="0px"
	 width="100%" viewBox="0 0 128 128" enable-background="new 0 0 128 128" xml:space="preserve">
<path fill="#02B7F9" opacity="1.000000" stroke="none" 
	d="
M74.000000,129.000000 
	C71.957680,129.000000 69.915367,129.000000 67.772049,128.750992 
	C66.708908,127.656410 65.856949,126.618690 64.768005,125.994247 
	C49.725960,117.368484 34.689728,108.730858 19.554077,100.271461 
	C16.318001,98.462799 14.807114,96.333038 14.920973,92.497559 
	C15.172501,84.024582 15.000065,75.539024 15.000205,67.058594 
	C15.000402,55.112404 15.000254,43.166214 15.000254,30.236784 
	C17.528019,31.219759 19.457926,31.782282 21.209347,32.689411 
	C25.178762,34.745327 29.060249,36.971008 33.142395,39.427052 
	C43.839382,45.753078 54.175705,52.164204 64.976448,57.663155 
	C71.529564,60.999523 74.014946,65.300842 73.727783,72.619186 
	C73.305038,83.392784 73.967194,94.208961 74.094269,105.470154 
	C74.014198,113.622215 74.007103,121.311104 74.000000,129.000000 
z"/>
<path fill="#02B8F9" opacity="1.000000" stroke="none" 
	d="
M55.831646,24.987263 
	C55.882622,17.303898 55.933598,9.620532 55.992287,1.468583 
	C57.714359,1.000000 59.428715,1.000000 61.571537,1.000000 
	C62.935467,2.118996 63.652531,3.619331 64.839523,4.299146 
	C79.934639,12.944388 95.143890,21.391127 110.202789,30.098177 
	C113.169754,31.813677 115.199829,34.217285 115.130432,38.479404 
	C114.826759,57.130215 115.039696,75.789001 114.936035,94.444183 
	C114.925957,96.259071 114.028610,98.069031 113.543106,99.881279 
	C111.785866,99.178764 109.923759,98.661491 108.291847,97.737595 
	C104.071419,95.348236 99.952545,92.779510 95.270920,89.778305 
	C94.551041,87.492508 94.192467,85.711716 94.182388,83.928963 
	C94.126175,73.982719 94.021675,64.033424 94.214966,54.090637 
	C94.299431,49.745609 92.637054,46.977737 88.869286,44.893265 
	C79.304146,39.601486 69.847221,34.112087 60.402676,28.606253 
	C58.740604,27.637325 57.348454,26.205379 55.831646,24.987263 
z"/>
<path fill="#E0E1E1" opacity="1.000000" stroke="none" 
	d="
M55.511765,24.843748 
	C57.348454,26.205379 58.740604,27.637325 60.402676,28.606253 
	C69.847221,34.112087 79.304146,39.601486 88.869286,44.893265 
	C92.637054,46.977737 94.299431,49.745609 94.214966,54.090637 
	C94.021675,64.033424 94.126175,73.982719 94.182388,83.928963 
	C94.192467,85.711716 94.551041,87.492508 94.959030,89.641571 
	C95.113174,96.778450 95.059792,103.547989 94.999916,110.317474 
	C94.955353,115.356888 93.765648,116.126678 89.226906,113.653610 
	C84.348854,110.995659 79.607063,108.087631 74.486519,105.147858 
	C73.967194,94.208961 73.305038,83.392784 73.727783,72.619186 
	C74.014946,65.300842 71.529564,60.999523 64.976448,57.663155 
	C54.175705,52.164204 43.839382,45.753078 33.142395,39.427052 
	C33.651466,37.940533 34.871948,36.769825 34.908184,35.563541 
	C35.101742,29.120428 34.999424,22.668427 34.999424,15.851578 
	C43.327053,15.928467 48.536659,22.002995 55.511765,24.843748 
z"/>
</svg>